<?xml version="1.0" encoding="UTF-8"?>
<svg id="Layer_1" xmlns="http://www.w3.org/2000/svg" version="1.1" viewBox="0 0 873 872.5">
  <!-- Generator: Adobe Illustrator 29.5.1, SVG Export Plug-In . SVG Version: 2.1.0 Build 141)  -->
  <defs>
    <style>
      .st0, .st1 {
        fill-rule: evenodd;
      }

      .st0, .st2 {
        fill: #fff;
      }

      .st1 {
        fill: #0061af;
      }

      .st3 {
        fill: #1e7fc3;
      }

      .st4 {
        fill: #da252b;
      }

      .st5 {
        fill: #e31937;
      }
    </style>
  </defs>
  <path class="st5" d="M158.9,156.1h18.2v42.8h51.3v-42.8h18.2v102.9h-18.2v-44.6h-51.3v44.6h-18.2v-102.9Z"/>
  <path class="st5" d="M281.2,256c-5.8-3.1-10.5-7.9-13.6-13.7-3.4-6.6-5.1-13.9-4.9-21.3-.2-7.4,1.5-14.8,4.9-21.4,3.1-5.8,7.9-10.6,13.7-13.7,6.1-3.2,13-4.8,19.9-4.7,6.8-.1,13.6,1.5,19.6,4.7,5.7,3.1,10.4,7.9,13.5,13.6,3.4,6.3,5.1,13.4,4.9,20.5.2,7.5-1.5,15-5,21.7-3.1,5.9-7.9,10.8-13.8,14.1-12.3,6.5-26.9,6.5-39.3.1ZM315.4,239.2c3.8-4.4,5.7-10.7,5.7-18.8s-1.8-13.6-5.4-17.9c-3.6-4.2-9-6.6-14.5-6.3-5.6-.2-10.9,2.1-14.6,6.3-3.8,4.2-5.7,10.3-5.7,18.4s1.9,14,5.7,18.4c7,8,19.1,8.8,27.1,1.8.6-.6,1.3-1.2,1.8-1.8Z"/>
  <path class="st5" d="M419.6,182.8v76.3h-14.7l-1.1-6.7c-3.3,2.5-6.9,4.5-10.7,6-4.5,1.7-9.2,2.5-14,2.3-8.2,0-14.5-2.3-18.9-7-4.4-4.6-6.7-11.1-6.7-19.5v-51.5h17.3v47.7c0,10,4.6,15,13.9,15,3.6,0,7.1-.9,10.2-2.7,2.9-1.6,5.4-3.7,7.5-6.1v-53.9h17.2Z"/>
  <path class="st5" d="M435.2,256.2v-15.9c3.3,1.9,6.8,3.3,10.4,4.2,4,1.2,8.1,1.8,12.3,1.8,3.7.2,7.3-.6,10.6-2.3,2.4-1.1,3.9-3.5,3.9-6.1.1-2.6-1.1-5-3.1-6.5-2.1-1.6-6.1-3.5-12.2-5.6-8-2.8-13.7-6-17-9.5-3.5-3.7-5.3-8.6-5.1-13.7,0-3.9,1.2-7.8,3.6-11,2.7-3.5,6.3-6.2,10.4-7.8,5.2-2,10.8-3,16.4-2.9,3.9,0,7.8.3,11.6,1,3,.5,5.9,1.3,8.7,2.4v14.8c-2.8-1.2-5.8-2.1-8.8-2.7-3.3-.7-6.7-1.1-10.2-1.1-3.7-.2-7.3.5-10.7,1.9-2.6,1.3-3.9,2.9-3.9,4.9,0,2.1,1.1,4,2.9,5.1,3.5,2,7.1,3.6,10.9,4.9l3.5,1.4c7.4,2.8,12.6,6,15.6,9.5,3,3.5,4.5,8.4,4.5,14.7.2,6.5-2.8,12.8-8,16.7-5.4,4.1-13,6.2-22.9,6.2-8,.1-16-1.4-23.4-4.5Z"/>
  <path class="st5" d="M523.8,196.2v38.3c0,7.5,3.5,11.2,10.6,11.2,3.2,0,6.5-.5,9.5-1.5v14.4c-2,.7-4,1.2-6.1,1.5-2.6.4-5.3.6-8,.6-8,0-13.8-2.1-17.6-6.2-3.8-4.1-5.7-9.7-5.7-16.8v-41.5h-11.1v-13.5h11.1v-16.5l17.2-5.2v21.6h20.7v13.5h-20.7Z"/>
  <path class="st5" d="M569,256c-5.8-3.1-10.5-7.9-13.6-13.7-3.4-6.6-5.1-13.9-4.9-21.3-.2-7.4,1.5-14.8,5-21.4,3.1-5.8,7.9-10.6,13.7-13.7,6.1-3.2,13-4.8,19.9-4.7,6.8-.1,13.5,1.5,19.5,4.8,5.7,3.2,10.4,7.9,13.5,13.6,3.4,6.3,5.1,13.4,4.9,20.5.2,7.5-1.5,15-5,21.7-3.2,5.9-8,10.8-13.8,14-12.3,6.5-26.9,6.5-39.3.1ZM603.3,239.2c3.8-4.4,5.7-10.7,5.7-18.8s-1.8-13.6-5.4-17.9c-3.6-4.2-9-6.6-14.5-6.3-5.6-.2-10.9,2.1-14.6,6.3-3.8,4.2-5.7,10.3-5.7,18.4s1.9,14,5.7,18.4c7,8,19.1,8.8,27.1,1.9.7-.6,1.3-1.2,1.9-1.9h0Z"/>
  <path class="st5" d="M701.6,188.1c4.8,4.6,7.2,11.2,7.2,19.6v51.4h-17.3v-48c.2-3.9-1-7.8-3.5-10.9-2.3-2.6-5.9-3.9-10.6-3.9-3.5,0-7,.8-10.1,2.4-3,1.6-5.7,3.7-8.2,6.1v54.3h-17.2v-76.3h14.8l1.5,7c3.3-2.6,6.9-4.8,10.7-6.4,4.2-1.6,8.7-2.4,13.2-2.3,8.2,0,14.7,2.3,19.6,7Z"/>
  <path class="st5" d="M84.7,315.3c6.7,5.9,10.1,13.7,10.1,23.4.1,6.4-1.5,12.8-4.8,18.3-3.2,5.3-7.9,9.6-13.5,12.3-6.4,3.1-13.5,4.6-20.6,4.4h-10.1v35.7h-18.2v-102.9h28.6c12.3,0,21.8,3,28.5,8.9ZM70.5,353.3c3.8-3.7,5.8-8.7,5.7-14,.3-5.1-1.8-10-5.7-13.3-3.8-3.2-8.9-4.8-15.4-4.8h-9.4v37.5h8.5c7.1,0,12.5-1.8,16.3-5.5Z"/>
  <path class="st5" d="M172.5,333.1v76.3h-14.7l-1.2-6.7c-3.3,2.5-6.9,4.5-10.7,6-4.5,1.7-9.2,2.5-14,2.3-8.2,0-14.5-2.3-18.9-7-4.4-4.6-6.7-11.1-6.7-19.5v-51.5h17.3v47.7c0,10,4.6,15,13.9,15,3.6,0,7.1-.9,10.2-2.7,2.8-1.6,5.4-3.7,7.5-6.1v-53.9h17.3Z"/>
  <path class="st5" d="M244.9,336.1c5.3,3.2,9.6,7.8,12.3,13.3,3,6.2,4.5,13.1,4.4,20,.2,7.6-1.7,15.1-5.3,21.8-3.4,6.2-8.5,11.3-14.7,14.6-6.8,3.6-14.4,5.4-22,5.2-4.8,0-9.5-.5-14.2-1.4-4.7-.8-9.3-2.1-13.8-3.8v-106.6h17.3v35.9c5.4-2.5,11.4-3.8,17.4-3.8,6.5-.2,12.9,1.5,18.6,4.7ZM237.1,389c4.2-4.7,6.4-10.9,6.4-18.5,0-7.2-1.7-12.9-5.2-17.3-3.4-4.3-8.6-6.7-14-6.5-5.4,0-10.6,1.4-15.3,4.1v43.3c3.6,1.4,7.5,2,11.4,2,6.4.3,12.5-2.3,16.8-7h0Z"/>
  <path class="st5" d="M276.6,299.3h17.3v110h-17.3v-110Z"/>
  <path class="st5" d="M314.5,319c-2-1.9-3.2-4.5-3.1-7.3,0-2.7,1-5.4,3-7.3,2-1.9,4.8-3,7.6-2.9,2.8,0,5.5,1,7.6,2.9,2.1,1.8,3.3,4.5,3.2,7.3,0,2.8-1.1,5.4-3.2,7.3-2.1,1.9-4.8,2.9-7.6,2.9-2.8,0-5.5-1-7.5-2.9ZM313.3,333.1h17.3v76.3h-17.3v-76.3Z"/>
  <path class="st5" d="M363.7,406.1c-5.9-3.2-10.7-8-13.8-13.9-3.3-6.4-4.9-13.6-4.8-20.8-.1-7.2,1.6-14.3,4.9-20.7,3.2-6,8.2-10.9,14.2-14.2,6.9-3.6,14.6-5.4,22.3-5.2,6.4-.2,12.7.9,18.6,3.3v15.9c-5.4-2.5-11.3-3.8-17.3-3.6-7.8,0-13.8,2.2-18.1,6.7-4.3,4.5-6.4,10.4-6.4,17.8,0,7.5,2.1,13.3,6.4,17.6,4.5,4.3,10.6,6.6,16.8,6.3,3.4,0,6.8-.3,10.1-1,2.9-.6,5.8-1.5,8.5-2.9v15.9c-6.4,2.5-13.2,3.8-20.1,3.6-7.4.2-14.8-1.4-21.3-4.9Z"/>
  <path class="st5" d="M558.6,306.5v102.9h-17.1v-70.1l-31.6,50.1h-4.5l-31.9-50.6v70.5h-17v-102.9h16.4l35.4,57.5,35.5-57.5h15Z"/>
  <path class="st5" d="M645.3,376h-52.1c1.6,13.6,9.6,20.4,23.9,20.4,8.5.2,16.9-1.9,24.4-6.1v15.6c-3.6,1.7-7.5,3-11.5,3.7-4.7,1-9.4,1.4-14.2,1.4-7.6.2-15.1-1.5-21.9-4.9-6-3.1-11-8-14.3-13.9-3.4-6.5-5.1-13.8-4.9-21.1-.1-7.2,1.5-14.4,4.7-20.8,2.9-5.8,7.5-10.6,13.1-13.9,5.9-3.3,12.5-5,19.3-4.9,6.4-.1,12.7,1.5,18.2,4.8,5.1,3.1,9.3,7.7,11.9,13.1,2.8,5.8,4.2,12.1,4.1,18.5,0,2.7-.2,5.4-.8,8.1ZM600.1,350.5c-3.5,3.3-5.7,7.7-6.4,12.4h35.7c-.3-4.5-2.1-8.7-5.1-12-3.1-3.3-7.6-5.1-12.1-4.9-4.4-.1-8.7,1.5-12,4.5Z"/>
  <path class="st5" d="M726.6,299.3v106c-9.7,3.7-19.9,5.6-30.3,5.7-12,0-21.6-3.4-28.8-10.3-7.2-6.9-10.8-16.7-10.8-29.5-.1-7.2,1.5-14.3,4.8-20.7,3.1-5.9,7.8-10.8,13.5-14.1,6.2-3.5,13.2-5.3,20.3-5.2,4.8-.1,9.7.9,14.1,2.9v-35h17.3ZM709.4,394.2v-44.6c-3.9-2.1-8.2-3.1-12.6-3-6.1-.2-11.9,2.3-15.9,6.9-4,4.6-6.1,10.7-6.1,18.2,0,7.8,2,13.8,6.1,18.1,4.1,4.3,9.9,6.7,15.8,6.4,4.3,0,8.5-.6,12.6-2Z"/>
  <path class="st5" d="M747.1,319c-2-1.9-3.2-4.5-3.1-7.3,0-2.7,1-5.4,3-7.3,2-1.9,4.8-3,7.6-2.9,2.8,0,5.5,1,7.6,2.9,2.1,1.8,3.2,4.5,3.2,7.3,0,2.8-1.1,5.4-3.2,7.3-2.1,1.9-4.8,2.9-7.6,2.9-2.8,0-5.5-1-7.5-2.9ZM745.9,333.1h17.2v76.3h-17.2v-76.3Z"/>
  <path class="st5" d="M834.5,339.2c5.3,5.2,8,12.6,8,22.3v47.9h-13.8l-2.2-7c-6.6,5.6-15,8.7-23.6,8.6-7.6,0-13.6-2.1-18.1-6.3-4.5-4.2-6.7-10-6.7-17.3,0-8.7,3.2-15,9.5-18.9,6.3-3.9,14.5-5.9,24.5-5.9,4.4,0,8.8.4,13.1,1.4v-.8c0-5.3-1.1-9.5-3.3-12.5-2.2-3-6.6-4.5-13.3-4.5-4.1,0-8.2.5-12.2,1.5-4.1,1-8.1,2.4-11.9,4.2v-15.7c8.4-3.2,17.3-4.9,26.3-4.9,10.4,0,18.3,2.7,23.6,7.9ZM799,393.7c2.3,1.9,5.2,2.9,8.2,2.7,6.5-.1,12.8-2.3,18-6.2v-14.1c-3.4-.6-6.8-.9-10.3-.9-4.6-.1-9.2.8-13.4,2.6-3.6,1.6-5.8,5.2-5.5,9.1,0,2.6,1.1,5.1,3,6.8Z"/>
  <polygon class="st4" points="599.4 652.7 599.4 536.6 480.7 536.6 480.7 652.7 599.4 652.7 599.4 652.7"/>
  <polygon points="718.7 652.7 718.7 536.6 599.4 536.6 599.4 652.7 718.7 652.7 718.7 652.7"/>
  <polygon class="st3" points="836 652.7 836 536.6 718.7 536.6 718.7 652.7 836 652.7 836 652.7"/>
  <path class="st2" d="M552.5,626.1v-35.2c.3-4-.7-8-3-11.4-2.6-2.6-6.2-3.9-9.8-3.6-4.8.3-9.2,2.5-12.3,6.1v44h-14.3v-61.1h10.3l2.6,5.7c3.9-4.5,9.5-6.7,17.2-6.7,6.4-.3,12.6,2,17.2,6.5,4.2,4.4,6.3,10.4,6.3,18.2v37.4h-14.2Z"/>
  <path class="st2" d="M657.9,627.3c9.3,0,16.7-2.7,22-8.1,5.4-5.4,8.1-13.1,8.1-23.1,0-21.4-9.7-32.2-29.2-32.2-4.9-.1-9.7,1.7-13.2,5.1v-4.1h-14.3v77.4h14.3v-17.7c3.8,1.8,8,2.7,12.3,2.7h0ZM654.7,576.2c6.6,0,11.3,1.5,14.1,4.4s4.2,8,4.2,15.2-1.4,11.7-4.3,14.8c-2.9,3.1-7.6,4.8-14.1,4.8-3.3,0-6.5-1-9.1-3.1v-32.1c2.4-2.5,5.7-4,9.1-4h0Z"/>
  <path class="st2" d="M794.1,578.4c-2.5-1.6-5.4-2.4-8.3-2.4-3.5,0-6.7,1.7-8.8,4.5-2.6,3.1-4,7-3.8,11v34.7h-14.3v-61.2h14.3v5.9c3.9-4.6,9.8-7.1,15.8-6.9,3.8-.2,7.7.5,11.1,2.2l-6,12.2Z"/>
  <path class="st1" d="M187.3,594.7c0,41.5-33.7,75.1-75.3,75.1-41.5,0-75.1-33.7-75.1-75.3,0-41.5,33.7-75.1,75.2-75.1,41.5,0,75.2,33.7,75.2,75.2h0"/>
  <path class="st1" d="M375.9,586.3c-8.2-4.3-14.9-7.7-14.9-14.3s4-7.6,10.7-7.6c7.2,0,14.3,2.1,20.5,5.8v-17c-6.5-2.8-13.4-4.3-20.5-4.5-19.8,0-28.7,11.9-28.7,24.6s10.1,22.2,21.2,28.1c11.1,5.9,15.2,8.3,15.2,14.6s-4.6,8.4-12.3,8.4c-8.6-.1-16.8-3.3-23.2-8.9v18.1c6.9,4.4,14.9,6.9,23.1,7.1,19.3,0,31.4-10.1,31.4-26.2s-14.3-23.8-22.5-28.1"/>
  <path class="st1" d="M319.3,591.2c6-4.2,9.4-11.2,8.9-18.6,0-14.3-10.5-23.1-27.3-23.1h-27.5v90.3h28.8c22,0,32.1-14.2,32.1-27.3s-5.7-18.4-14.9-21.3ZM299.7,564.7c5.8-.5,10.9,3.8,11.4,9.6,0,.5,0,1,0,1.4,0,6.8-4.8,11.2-12.4,11.2h-7.6v-22.2h8.5ZM291.2,624.7v-23.6h11.2c9,0,14.3,4.4,14.3,11.7s-5.4,11.9-15.9,11.9h-9.6Z"/>
  <path class="st1" d="M229.1,549.5h-23.8v90.3h17.8v-28.6h3.6c22.2,0,36-11.9,36-31s-12.5-30.7-33.5-30.7ZM223.1,564.6h5.2c10.4,0,17.1,6,17.1,15.4s-6.2,15.9-17,15.9h-5.3v-31.3Z"/>
  <path class="st0" d="M166.9,595.4l-8.3,1.7v15.4c-.1,5.3-4.5,9.4-9.7,9.3,0,0,0,0,0,0h-4.3v17.9h-13.7v-17.9h4.3c5.3.1,9.6-4,9.8-9.3,0,0,0,0,0,0v-15.4l8.3-1.7c1.5-.3,2.5-1.8,2.2-3.2,0-.3-.1-.5-.3-.8l-21.9-41.9h13.7l21.9,41.9c.7,1.3.2,3-1.2,3.7-.2.1-.5.2-.8.3M136.8,595.4l-8.3,1.7v15.4c-.1,5.3-4.5,9.4-9.7,9.3,0,0,0,0,0,0h-4.3v17.9h-33.8v-21.4c-14-4-23.8-16.7-24-31.2-.5-20.6,17-37.5,37.6-37.5h22.6l21.9,41.9c.7,1.3.2,3-1.2,3.7-.2.1-.5.2-.8.3M118.9,580.5c0-4.8-3.9-8.6-8.6-8.6s-8.6,3.9-8.6,8.6,3.9,8.6,8.6,8.6h0c4.8,0,8.6-3.9,8.6-8.6"/>
</svg>