<?xml version="1.0" encoding="UTF-8"?>
<svg id="Layer_1" xmlns="http://www.w3.org/2000/svg" version="1.1" viewBox="0 0 873 68.3">
  <!-- Generator: Adobe Illustrator 29.4.0, SVG Export Plug-In . SVG Version: 2.1.0 Build 152)  -->
  <defs>
    <style>
      .st0 {
        fill: #ffffff;
      }
    </style>
  </defs>
  <path class="st0" d="M.3,4.3h11.1v26.2h31.4V4.3h11.1v62.9h-11.1v-27.3H11.5v27.3H.3V4.3Z"/>
  <path class="st0" d="M75.1,65.4c-3.5-1.9-6.4-4.8-8.3-8.4-2.1-4-3.1-8.5-3-13-.1-4.5.9-9.1,3-13.1,1.9-3.5,4.8-6.5,8.4-8.4,3.7-2,7.9-2.9,12.2-2.9,4.2,0,8.3.9,12,2.9,3.5,1.9,6.4,4.8,8.3,8.3,2.1,3.8,3.1,8.2,3,12.5.1,4.6-.9,9.2-3.1,13.3-1.9,3.6-4.8,6.6-8.4,8.6-7.5,4-16.5,4-24,0ZM96,55.1c2.3-2.7,3.5-6.5,3.5-11.5s-1.1-8.3-3.3-10.9c-2.2-2.6-5.5-4-8.9-3.9-3.4-.1-6.7,1.3-8.9,3.8-2.3,2.6-3.5,6.3-3.5,11.2s1.2,8.6,3.5,11.2c4.3,4.9,11.7,5.4,16.6,1.1.4-.3.8-.7,1.1-1.1Z"/>
  <path class="st0" d="M159.7,20.6v46.6h-9l-.7-4.1c-2,1.5-4.2,2.7-6.5,3.7-2.7,1-5.6,1.5-8.6,1.4-5,0-8.9-1.4-11.6-4.2-2.7-2.8-4.1-6.8-4.1-11.9v-31.5h10.6v29.1c0,6.1,2.8,9.2,8.5,9.2,2.2,0,4.3-.5,6.2-1.6,1.7-1,3.3-2.2,4.6-3.8V20.6h10.5Z"/>
  <path class="st0" d="M169.2,65.5v-9.7c2,1.2,4.1,2,6.4,2.6,2.4.7,5,1.1,7.5,1.1,2.2.1,4.5-.4,6.5-1.4,1.4-.7,2.4-2.1,2.4-3.7,0-1.6-.6-3.1-1.9-4-1.3-1-3.7-2.1-7.4-3.4-4.9-1.7-8.4-3.6-10.4-5.8-2.1-2.3-3.2-5.3-3.1-8.4,0-2.4.7-4.8,2.2-6.7,1.6-2.1,3.8-3.8,6.3-4.8,3.2-1.2,6.6-1.8,10-1.8,2.4,0,4.7.2,7.1.6,1.8.3,3.6.8,5.3,1.4v9.1c-1.7-.7-3.5-1.3-5.4-1.6-2-.4-4.1-.7-6.2-.7-2.2-.1-4.5.3-6.5,1.1-1.6.8-2.4,1.8-2.4,3,0,1.3.7,2.5,1.8,3.1,2.1,1.2,4.4,2.2,6.7,3l2.1.8c4.5,1.7,7.7,3.7,9.5,5.8,1.9,2.2,2.8,5.2,2.8,9,.1,4-1.7,7.8-4.9,10.2-3.3,2.5-7.9,3.8-14,3.8-4.9,0-9.8-.9-14.3-2.8Z"/>
  <path class="st0" d="M223.4,28.9v23.4c0,4.6,2.2,6.8,6.5,6.8,2,0,3.9-.3,5.8-.9v8.8c-1.2.4-2.5.8-3.8.9-1.6.3-3.2.4-4.9.4-4.9,0-8.5-1.3-10.8-3.8-2.3-2.5-3.5-6-3.5-10.3v-25.4h-6.8v-8.2h6.8v-10.1l10.5-3.2v13.2h12.6v8.2h-12.6Z"/>
  <path class="st0" d="M251,65.4c-3.5-1.9-6.4-4.8-8.3-8.4-2.1-4-3.1-8.5-3-13-.1-4.6.9-9.1,3.1-13.1,1.9-3.5,4.8-6.5,8.4-8.4,3.8-2,7.9-2.9,12.2-2.9,4.2,0,8.3.9,11.9,2.9,3.5,1.9,6.4,4.8,8.3,8.3,2.1,3.8,3.1,8.2,3,12.5.1,4.6-.9,9.2-3,13.3-1.9,3.6-4.9,6.6-8.5,8.6-7.5,4-16.5,4-24,0ZM271.9,55.1c2.3-2.7,3.5-6.5,3.5-11.5s-1.1-8.3-3.3-10.9c-2.2-2.6-5.5-4-8.9-3.9-3.4-.1-6.7,1.3-8.9,3.8-2.3,2.6-3.5,6.3-3.5,11.2s1.1,8.5,3.5,11.2c4.3,4.9,11.7,5.4,16.5,1.1.4-.4.8-.7,1.1-1.1h0Z"/>
  <path class="st0" d="M332,23.9c2.9,2.8,4.4,6.8,4.4,12v31.4h-10.6v-29.3c.1-2.4-.6-4.8-2.1-6.7-1.4-1.6-3.6-2.4-6.5-2.4-2.2,0-4.3.5-6.2,1.5-1.8,1-3.5,2.3-5,3.7v33.2h-10.5V20.6h9.1l.9,4.3c2-1.6,4.2-2.9,6.6-3.9,2.6-1,5.3-1.4,8-1.4,5,0,9,1.4,12,4.3Z"/>
  <path class="st0" d="M408.1,9.8c4.1,3.6,6.1,8.4,6.1,14.3,0,3.9-.9,7.8-2.9,11.2-2,3.2-4.9,5.9-8.3,7.5-3.9,1.9-8.2,2.8-12.6,2.7h-6.2v21.8h-11.1V4.3h17.5c7.5,0,13.3,1.8,17.4,5.4ZM399.4,33c2.3-2.2,3.6-5.3,3.5-8.5.2-3.1-1.1-6.1-3.5-8.1-2.3-1.9-5.5-2.9-9.4-2.9h-5.7v22.9h5.2c4.3,0,7.6-1.1,10-3.4Z"/>
  <path class="st0" d="M461.7,20.6v46.6h-9l-.7-4.1c-2,1.5-4.2,2.7-6.5,3.7-2.7,1-5.6,1.5-8.6,1.4-5,0-8.8-1.4-11.6-4.2-2.7-2.8-4.1-6.8-4.1-11.9v-31.5h10.5v29.1c0,6.1,2.8,9.2,8.5,9.2,2.2,0,4.3-.5,6.2-1.6,1.7-1,3.3-2.2,4.6-3.8V20.6h10.6Z"/>
  <path class="st0" d="M506,22.5c3.2,1.9,5.9,4.8,7.5,8.1,1.8,3.8,2.8,8,2.7,12.2,0,4.6-1,9.2-3.2,13.3-2.1,3.8-5.2,6.9-9,8.9-4.1,2.2-8.8,3.3-13.5,3.2-2.9,0-5.8-.3-8.7-.8-2.9-.5-5.7-1.3-8.4-2.3V0h10.6v21.9c3.3-1.6,7-2.3,10.6-2.3,4,0,7.9.9,11.4,2.9ZM501.2,54.8c2.6-2.9,3.9-6.6,3.9-11.3,0-4.4-1.1-7.9-3.2-10.5-2.1-2.6-5.2-4.1-8.6-4-3.3,0-6.5.9-9.4,2.5v26.5c2.2.8,4.6,1.2,6.9,1.2,3.9.2,7.6-1.4,10.3-4.3h0Z"/>
  <path class="st0" d="M525.4,0h10.5v67.3h-10.5V0Z"/>
  <path class="st0" d="M548.5,12c-1.3-1.1-1.9-2.8-1.9-4.4,0-1.7.6-3.3,1.8-4.4,1.2-1.2,2.9-1.8,4.6-1.8,1.7,0,3.4.6,4.6,1.8,1.3,1.1,2,2.7,2,4.4,0,1.7-.7,3.3-2,4.4-1.3,1.2-2.9,1.8-4.6,1.8-1.7,0-3.3-.6-4.6-1.8ZM547.8,20.6h10.5v46.7h-10.5V20.6Z"/>
  <path class="st0" d="M578.6,65.2c-3.6-1.9-6.5-4.9-8.4-8.5-2-3.9-3-8.3-2.9-12.7,0-4.4,1-8.7,3-12.6,2-3.7,5-6.7,8.7-8.6,4.2-2.2,8.9-3.3,13.7-3.1,3.9-.1,7.8.6,11.4,2v9.7c-3.3-1.6-6.9-2.3-10.5-2.2-4.7,0-8.4,1.4-11,4.1-2.6,2.7-3.9,6.4-3.9,10.9,0,4.6,1.3,8.1,3.9,10.7,2.7,2.6,6.5,4.1,10.3,3.9,2.1,0,4.2-.2,6.2-.6,1.8-.3,3.5-.9,5.2-1.8v9.7c-3.9,1.6-8.1,2.3-12.3,2.2-4.5.1-9-.9-13-3Z"/>
  <path class="st0" d="M699.5,4.3v62.9h-10.5V24.4l-19.3,30.6h-2.8l-19.5-30.9v43.1h-10.4V4.3h10l21.7,35.2,21.7-35.2h9.2Z"/>
  <path class="st0" d="M752.4,46.8h-31.8c1,8.3,5.9,12.5,14.6,12.5,5.2.1,10.3-1.2,14.9-3.7v9.5c-2.2,1-4.6,1.8-7,2.3-2.8.6-5.7.9-8.7.9-4.6.1-9.2-.9-13.4-3-3.7-1.9-6.7-4.9-8.8-8.5-2.1-4-3.1-8.4-3-12.9,0-4.4.9-8.8,2.9-12.7,1.8-3.5,4.6-6.5,8-8.5,3.6-2,7.7-3.1,11.8-3,3.9,0,7.8.9,11.2,2.9,3.1,1.9,5.7,4.7,7.3,8,1.7,3.5,2.6,7.4,2.5,11.3,0,1.7-.1,3.3-.5,4.9ZM724.8,31.3c-2.1,2-3.5,4.7-3.9,7.6h21.8c-.2-2.7-1.3-5.3-3.1-7.3-1.9-2-4.6-3.1-7.4-3-2.7,0-5.3.9-7.4,2.7Z"/>
  <path class="st0" d="M802.2,0v64.8c-5.9,2.3-12.2,3.4-18.5,3.5-7.3,0-13.2-2.1-17.6-6.3-4.4-4.2-6.6-10.2-6.6-18,0-4.4.9-8.7,2.9-12.6,1.9-3.6,4.7-6.6,8.3-8.6,3.8-2.1,8.1-3.2,12.4-3.1,3,0,5.9.5,8.6,1.8V0h10.6ZM791.6,58v-27.3c-2.4-1.3-5-1.9-7.7-1.9-3.7-.1-7.3,1.4-9.7,4.2-2.5,2.8-3.7,6.5-3.7,11.1,0,4.8,1.2,8.4,3.7,11,2.5,2.6,6,4.1,9.7,3.9,2.6,0,5.2-.4,7.7-1.2Z"/>
  <path class="st0" d="M814.6,12c-1.3-1.1-1.9-2.8-1.9-4.4,0-1.7.6-3.3,1.8-4.4,1.2-1.2,2.9-1.8,4.6-1.8,1.7,0,3.4.6,4.6,1.8,1.3,1.1,2,2.7,1.9,4.4,0,1.7-.7,3.3-1.9,4.4-1.3,1.2-2.9,1.8-4.6,1.8-1.7,0-3.3-.6-4.6-1.8ZM814,20.6h10.5v46.7h-10.5V20.6Z"/>
  <path class="st0" d="M868.1,24.4c3.3,3.2,4.9,7.7,4.9,13.6v29.3h-8.4l-1.3-4.3c-4,3.4-9.1,5.3-14.4,5.3-4.6,0-8.3-1.3-11.1-3.9-2.7-2.6-4.1-6.1-4.1-10.5,0-5.3,1.9-9.2,5.8-11.6,3.9-2.4,8.9-3.6,15-3.6,2.7,0,5.4.3,8,.8v-.5c0-3.3-.7-5.8-2-7.6-1.3-1.8-4.1-2.7-8.2-2.7-2.5,0-5,.3-7.5.9-2.5.6-4.9,1.5-7.3,2.6v-9.6c5.1-2,10.6-3,16.1-3,6.4,0,11.2,1.6,14.4,4.8ZM846.4,57.6c1.4,1.2,3.2,1.8,5,1.7,4,0,7.8-1.4,11-3.8v-8.6c-2.1-.4-4.2-.6-6.3-.6-2.8,0-5.6.5-8.2,1.6-2.2.9-3.5,3.2-3.4,5.5,0,1.6.7,3.1,1.9,4.2Z"/>
</svg>